<svg xmlns="http://www.w3.org/2000/svg" xmlns:xlink="http://www.w3.org/1999/xlink" height="60" style="enable-background:new 0 0 67 67;" version="1.1" width="60" xml:space="preserve"><rect id="backgroundrect" width="100%" height="100%" x="0" y="0" fill="none" stroke="none"/><g class="currentLayer" style=""><title>Layer 1</title><path d="M25.765,46.32 h6.744 V29.997999999999998 h4.499 l0.5960000000000001,-5.6240000000000006 h-5.095 l0.007000000000000002,-2.816 c0,-1.466 0.14,-2.253 2.244,-2.253 h2.8120000000000003 V13.68 h-4.5 c-5.405,0 -7.307,2.729 -7.307,7.317 v3.3770000000000002 h-3.369 v5.625 h3.369 V46.32 zM30,60 C13.431999999999999,60 0,46.568 0,30 C0,13.431000000000001 13.431999999999999,0 30,0 s30,13.431000000000001 30,30 C60,46.568 46.568,60 30,60 z" style="fill-rule:evenodd;clip-rule:evenodd;fill:#3A589B;" id="svg_1" class=""/></g></svg>