<svg xmlns="http://www.w3.org/2000/svg" xmlns:xlink="http://www.w3.org/1999/xlink" enable-background="new 0 0 512 512" version="1.1" xml:space="preserve" width="499" height="503"><rect id="backgroundrect" width="100%" height="100%" x="0" y="0" fill="none" stroke="none"/><g class="currentLayer" style=""><title>Layer 1</title><g id="svg_1" class=""><path d="M249.1999999046326,503.0999998092651 C111.29999990463257,503.0999998092651 -9.536743128535363e-8,390.5999998092651 0.5999999046325684,250.69999980926514 C1.199999904632568,112.09999980926514 112.99999990463257,-1.9073486345888568e-7 251.6999999046326,1.399999809265137 c136,1.3 247,112.8 245.9,253.1 C496.49999990463255,392.29999980926516 385.99999990463255,502.69999980926514 249.1999999046326,503.0999998092651 zM249.09999990463257,21.099999809265135 C124.99999990463257,20.699999809265137 21.39999990463257,121.79999980926513 20.19999990463257,249.69999980926514 c-1.3,130.3 102.8,232.4 226.4,233.7 c125.9,1.3 230.7,-100.6 231.3,-229.2 C478.59999990463257,124.59999980926514 376.3999999046326,21.099999809265135 249.09999990463257,21.099999809265135 z" fill="#E65C4F" id="svg_2"/><path d="M380.1999999046326,138.19999980926514 c13.4,-1.4 26,9.3 26.9,22.9 c0.2,3.6 0,7.3 0,11 c-1.2,0 -2.1,0.8 -3.1,1.5 c-11,7.9 -21.9,15.7 -32.9,23.6 c-36.7,25.2 -73.4,50.3 -110,75.6 c-3.8,2.6 -8.1,4.6 -11.1,8.3 c-1.7000000000000002,0.30000000000000004 -2.8,-0.8 -4,-1.7000000000000002 c-29.6,-20.6 -59.3,-41.3 -88.9,-61.9 c-10.1,-7 -20.1,-14 -31,-21.5 c0,2.7 0,4.5 0,6.3 c0,28.6 0,57.3 0,85.9 c0,25.3 0.1,50.6 0.2,75.9 c0,0.7000000000000001 -0.1,1.4 -0.1,2.1 c-16.6,3.2 -30.7,-4.7 -34.4,-19.4 c-0.5,-2.1 -0.7000000000000001,-4.3 -0.7000000000000001,-6.4 c0,-58.7 0.1,-117.5 -0.1,-176.2 c-0.1,-14.9 13.2,-28.1 27.1,-26 c0.5,0.5 0.9,1 1.4,1.4 c42.1,31.2 84.2,62.4 126.2,93.6 c2.5,1.9 4,1.6 6.3,-0.1 c26.2,-19.4 52.5,-38.7 78.7,-58 C347.1999999046326,162.89999980926513 363.6999999046326,150.49999980926515 380.1999999046326,138.19999980926514 z" fill="#E65A4D" id="svg_3"/><path d="M126.19999990463256,364.19999980926514 c-0.1,-25.3 -0.1,-50.6 -0.2,-75.9 c0,-28.6 0,-57.3 0,-85.9 c0,-1.8 0,-3.5 0,-6.3 c10.8,7.5 20.9,14.5 31,21.5 c29.6,20.6 59.3,41.3 88.9,61.9 c1.2,0.8 2.3,1.9 4,1.7000000000000002 c0.2,2.2 2.2,2.8 3.7,3.8 c34,23.6 68,47 101.9,70.8 c4.3,3 9.3,5.2 12.6,9.6 c-1,1.3 -2.4,1 -3.7,1 c-78.8,0 -157.6,-0.1 -236.4,-0.1 c0.7000000000000001,-1 1.4,-1.9 2.1,-2.9 c2.2,-0.7000000000000001 4.2,-1.6 5,-4 c4.2,-0.6000000000000001 6.7,-3.6 9.3,-6.5 c-3.6,1.5 -7,3.1 -9.5,6.3 c-2.2,0.7000000000000001 -4.2,1.6 -5,4 C128.69999990463256,363.3999998092651 127.49999990463257,363.79999980926516 126.19999990463256,364.19999980926514 zM186.09999990463257,324.19999980926514 c0.30000000000000004,0 0.6000000000000001,0 1,0 c1.3,-0.7000000000000001 2.9,-1 3,-3 c0.8,0 1.6,-0.2 2,-1 c0.30000000000000004,-0.30000000000000004 0.7000000000000001,-0.7000000000000001 1,-1 c0.8,0 1.6,-0.2 2,-1 c0.1,-0.2 0.30000000000000004,-0.30000000000000004 0.4,-0.5 c-0.2,0.1 -0.30000000000000004,0.30000000000000004 -0.5,0.4 c-0.8,0 -1.6,0.2 -2,1 c-0.30000000000000004,0.30000000000000004 -0.7000000000000001,0.7000000000000001 -1,1 c-0.8,0 -1.6,0.2 -2,1 c-1.4,0 -2.4,0.7000000000000001 -3,2 C186.69999990463256,323.49999980926515 186.39999990463258,323.79999980926516 186.09999990463257,324.19999980926514 c-0.2,0.1 -0.4,0.2 -0.5,0.4 C185.79999990463256,324.49999980926515 185.99999990463257,324.3999998092651 186.09999990463257,324.19999980926514 zM180.09999990463257,328.19999980926514 c0.8,0 1.6,-0.2 2,-1 c0.8,-0.1 1.6,-0.2 1.5,-1.2 c0,-0.1 -0.2,-0.30000000000000004 -0.30000000000000004,-0.30000000000000004 c-1.1,-0.1 -1.2,0.7000000000000001 -1.3,1.5 C181.19999990463256,327.19999980926514 180.49999990463257,327.29999980926516 180.09999990463257,328.19999980926514 c-0.4,0.30000000000000004 -0.7000000000000001,0.6000000000000001 -1.1,0.9 c-0.8,0 -1.6,0.2 -2,1 c-0.30000000000000004,0.30000000000000004 -0.7000000000000001,0.7000000000000001 -1,1 c-0.8,0 -1.6,0.2 -2,1 c-1.4,0.1 -2.4,0.7000000000000001 -3,2 c-0.30000000000000004,0.30000000000000004 -0.6000000000000001,0.7000000000000001 -1,1 c-0.1,0.2 -0.30000000000000004,0.30000000000000004 -0.4,0.5 c0.2,-0.1 0.30000000000000004,-0.30000000000000004 0.5,-0.4 c0.8,0 1.6,-0.2 2,-1 c1.2,-0.1 1.9,-0.7000000000000001 2,-2 c0.8,0 1.6,-0.2 2,-1 c0.30000000000000004,-0.30000000000000004 0.7000000000000001,-0.7000000000000001 1,-1 c0.8,0 1.6,-0.2 2,-1 C179.49999990463257,328.8999998092651 179.79999990463256,328.5999998092651 180.09999990463257,328.19999980926514 zM164.09999990463257,339.19999980926514 c-0.8,0.1 -1.6,0.2 -1.5,1.3 c0,0.1 0.2,0.30000000000000004 0.30000000000000004,0.30000000000000004 C163.89999990463258,340.79999980926516 163.99999990463257,339.99999980926515 164.09999990463257,339.19999980926514 c0.9,0.1 1.6,-0.1 2.1,-0.9 c0.8,-0.1 1.6,-0.2 1.5,-1.3 c0,-0.1 -0.2,-0.30000000000000004 -0.30000000000000004,-0.30000000000000004 c-1.1,-0.1 -1.2,0.7000000000000001 -1.3,1.5 C165.19999990463256,338.19999980926514 164.49999990463257,338.3999998092651 164.09999990463257,339.19999980926514 zM150.99999990463257,348.0999998092651 c-1.4,0.1 -2.4,0.8 -3,2 c-0.7000000000000001,0.2 -1.6,0.30000000000000004 -1.5,1.3 c0,0.1 0.2,0.30000000000000004 0.30000000000000004,0.30000000000000004 c1,0.1 1.2,-0.7000000000000001 1.4,-1.5 c1.4,0 2.8,-0.2 3,-2 c0.8,0 1.5,-0.2 2,-1 c1.4,-0.1 2.4,-0.8 3,-2 c0.7000000000000001,-0.2 1.6,-0.2 1.5,-1.3 c0,-0.1 -0.2,-0.30000000000000004 -0.30000000000000004,-0.30000000000000004 c-1.1,-0.1 -1.2,0.7000000000000001 -1.3,1.5 c-1.4,0 -2.8,0.1 -3,2 C152.19999990463256,347.19999980926514 151.49999990463257,347.3999998092651 150.99999990463257,348.0999998092651 zM160.79999990463256,342.3999998092651 c-0.1,-0.30000000000000004 -0.1,-0.7000000000000001 -0.30000000000000004,-0.8 c-0.2,-0.1 -0.6000000000000001,0 -0.8,0.2 c-0.30000000000000004,0.4 -0.2,0.9 0.4,0.9 C160.19999990463256,342.79999980926516 160.49999990463257,342.5999998092651 160.79999990463256,342.3999998092651 z" fill="#E6E3D6" id="svg_4"/><path d="M380.1999999046326,138.19999980926514 c-16.5,12.3 -33,24.6 -49.6,36.9 c-26.2,19.4 -52.5,38.6 -78.7,58 c-2.4,1.8 -3.8,2 -6.3,0.1 c-42,-31.3 -84.1,-62.4 -126.2,-93.6 c-0.5,-0.4 -0.9,-0.9 -1.4,-1.4 c54.6,0 109.2,-0.1 163.9,-0.1 C314.59999990463257,138.19999980926514 347.3999999046326,138.19999980926514 380.1999999046326,138.19999980926514 z" fill="#F6F4EC" id="svg_5"/><path d="M368.09999990463257,365.19999980926514 c-3.3,-4.4 -8.3,-6.6 -12.6,-9.6 c-33.9,-23.7 -68,-47.2 -101.9,-70.8 c-1.4,-1 -3.4,-1.6 -3.7,-3.8 c3,-3.7 7.3,-5.7 11.1,-8.3 c36.6,-25.3 73.3,-50.4 110,-75.6 c0,56.3 0,112.6 0.1,168.9 C370.09999990463257,365.8999998092651 369.09999990463257,365.49999980926515 368.09999990463257,365.19999980926514 z" fill="#B6B5AC" id="svg_6"/><path d="M371.1999999046326,366.19999980926514 c0,-56.3 0,-112.6 -0.1,-168.9 c11,-7.9 21.9,-15.7 32.9,-23.6 c0.9,-0.7000000000000001 1.8,-1.5 3.1,-1.5 c0.1,18.5 0.2,36.9 0.2,55.4 c0,36.1 0,72.2 0,108.3 c0,2.5 0,5 -0.1,7.5 c-0.6000000000000001,12.4 -6.6,19.4 -18.6,21.7 C382.79999990463256,366.19999980926514 376.99999990463255,366.8999998092651 371.1999999046326,366.19999980926514 z" fill="#B13A30" id="svg_7"/><path d="M130.19999990463256,363.29999980926516 c-0.7000000000000001,1 -1.4,1.9 -2.1,2.9 c-0.7000000000000001,0 -1.3,0 -2,0.1 c0,-0.7000000000000001 0.1,-1.4 0.1,-2.1 c1.3,-0.4 2.5,-0.7000000000000001 3.8,-1.1 C129.99999990463257,363.0999998092651 130.19999990463256,363.29999980926516 130.19999990463256,363.29999980926516 z" fill="#C1C0B6" id="svg_8"/><path d="M134.99999990463257,359.0999998092651 c2.5,-3.1 5.9,-4.8 9.5,-6.3 c-2.6,2.9 -5.1,5.9 -9.3,6.5 L134.99999990463257,359.0999998092651 z" fill="#C1C0B6" id="svg_9"/><path d="M135.19999990463256,359.29999980926516 c-0.9,2.4 -2.9,3.3 -5,4 c0,0 -0.2,-0.2 -0.2,-0.2 c0.8,-2.4 2.9,-3.3 5,-4 C134.99999990463257,359.0999998092651 135.19999990463256,359.29999980926516 135.19999990463256,359.29999980926516 z" fill="#C1C0B6" id="svg_10"/><path d="M190.09999990463257,321.19999980926514 c-0.1,1.9 -1.8,2.2 -3,3 c0,-0.30000000000000004 0,-0.7000000000000001 0,-1 C187.69999990463256,321.8999998092651 188.69999990463256,321.19999980926514 190.09999990463257,321.19999980926514 C190.09999990463257,321.19999980926514 190.09999990463257,321.19999980926514 190.09999990463257,321.19999980926514 z" fill="#C5C3B9" id="svg_11"/><path d="M170.99999990463257,334.19999980926514 c0.6000000000000001,-1.3 1.6,-2 3,-2 l0.1,0.1 c0,1.3 -0.7000000000000001,1.9 -2,2 C171.79999990463256,334.19999980926514 171.39999990463258,334.19999980926514 170.99999990463257,334.19999980926514 z" fill="#C3C2B8" id="svg_12"/><path d="M156.19999990463256,345.29999980926516 c-0.6000000000000001,1.3 -1.6,1.9 -3,2 c0,0 -0.1,-0.1 -0.1,-0.1 c0.2,-1.9 1.6,-2 3,-2 L156.19999990463256,345.29999980926516 z" fill="#C1C0B6" id="svg_13"/><path d="M147.99999990463257,350.0999998092651 c0.6000000000000001,-1.2 1.6,-1.9 3,-2 l0.1,0.2 c-0.2,1.9 -1.5,2 -3,2 L147.99999990463257,350.0999998092651 z" fill="#C1C0B6" id="svg_14"/><path d="M165.99999990463257,338.0999998092651 c0.1,-0.8 0.30000000000000004,-1.6 1.3,-1.5 c0.1,0 0.30000000000000004,0.2 0.30000000000000004,0.30000000000000004 c0,1.1 -0.8,1.1 -1.5,1.3 L165.99999990463257,338.0999998092651 z" fill="#C1C0B6" id="svg_15"/><path d="M164.09999990463257,339.29999980926516 c-0.1,0.8 -0.2,1.6 -1.3,1.5 c-0.1,0 -0.30000000000000004,-0.2 -0.30000000000000004,-0.30000000000000004 C162.49999990463257,339.29999980926516 163.29999990463256,339.29999980926516 164.09999990463257,339.29999980926516 C164.09999990463257,339.19999980926514 164.09999990463257,339.29999980926516 164.09999990463257,339.29999980926516 z" fill="#C1C0B6" id="svg_16"/><path d="M160.79999990463256,342.3999998092651 c-0.2,0.1 -0.5,0.4 -0.7000000000000001,0.4 c-0.5,-0.1 -0.7000000000000001,-0.5 -0.4,-0.9 c0.1,-0.2 0.6000000000000001,-0.30000000000000004 0.8,-0.2 C160.59999990463257,341.79999980926516 160.69999990463256,342.0999998092651 160.79999990463256,342.3999998092651 z" fill="#C1C0B6" id="svg_17"/><path d="M155.99999990463257,345.0999998092651 c0.1,-0.8 0.30000000000000004,-1.5 1.3,-1.5 c0.1,0 0.30000000000000004,0.2 0.30000000000000004,0.30000000000000004 c0.1,1.1 -0.8,1.1 -1.5,1.3 C156.19999990463256,345.29999980926516 155.99999990463257,345.0999998092651 155.99999990463257,345.0999998092651 z" fill="#C1C0B6" id="svg_18"/><path d="M148.19999990463256,350.29999980926516 c-0.2,0.8 -0.30000000000000004,1.5 -1.4,1.5 c-0.1,0 -0.30000000000000004,-0.2 -0.30000000000000004,-0.30000000000000004 c-0.1,-1.1 0.8,-1.1 1.5,-1.3 C147.99999990463257,350.0999998092651 148.19999990463256,350.29999980926516 148.19999990463256,350.29999980926516 z" fill="#C1C0B6" id="svg_19"/><path d="M182.09999990463257,327.19999980926514 c0.1,-0.8 0.2,-1.6 1.3,-1.5 c0.1,0 0.30000000000000004,0.2 0.30000000000000004,0.30000000000000004 C183.69999990463256,327.0999998092651 182.89999990463258,327.0999998092651 182.09999990463257,327.19999980926514 L182.09999990463257,327.19999980926514 z" fill="#C3C2B8" id="svg_20"/><path d="M193.09999990463257,319.19999980926514 c0.4,-0.8 1.2,-1 2,-1 l0,0 C194.69999990463256,318.99999980926515 193.99999990463257,319.19999980926514 193.09999990463257,319.19999980926514 L193.09999990463257,319.19999980926514 z" fill="#C5C3B9" id="svg_21"/><path d="M192.09999990463257,320.19999980926514 c-0.4,0.8 -1.2,1 -2,1 c0,0 -0.1,-0.1 -0.1,-0.1 C190.49999990463257,320.3999998092651 191.19999990463256,320.19999980926514 192.09999990463257,320.19999980926514 C192.09999990463257,320.19999980926514 192.09999990463257,320.19999980926514 192.09999990463257,320.19999980926514 z" fill="#C5C3B9" id="svg_22"/><path d="M177.09999990463257,330.19999980926514 c0.4,-0.8 1.2,-1 2,-1 c0,0 0.1,0.1 0.1,0.1 C178.69999990463256,329.99999980926515 177.99999990463257,330.19999980926514 177.09999990463257,330.19999980926514 C177.09999990463257,330.29999980926516 177.09999990463257,330.19999980926514 177.09999990463257,330.19999980926514 z" fill="#C3C2B8" id="svg_23"/><path d="M174.09999990463257,332.19999980926514 c0.4,-0.8 1.2,-1 2,-1 l0.1,0.1 C175.69999990463256,332.0999998092651 174.99999990463257,332.19999980926514 174.09999990463257,332.19999980926514 C174.09999990463257,332.19999980926514 174.09999990463257,332.19999980926514 174.09999990463257,332.19999980926514 z" fill="#C3C2B8" id="svg_24"/><path d="M170.99999990463257,334.19999980926514 c0.4,0 0.8,0 1.1,0 c-0.5,0.8 -1.2,1 -2,1 c0,0 -0.1,-0.1 -0.1,-0.1 C170.39999990463258,334.79999980926516 170.69999990463256,334.49999980926515 170.99999990463257,334.19999980926514 z" fill="#C1C0B6" id="svg_25"/><path d="M166.09999990463257,338.19999980926514 c-0.4,0.8 -1.2,1 -2,1 c0,0 -0.1,-0.1 -0.1,-0.1 c0.4,-0.8 1.2,-1 2,-1 C165.99999990463257,338.0999998092651 166.09999990463257,338.19999980926514 166.09999990463257,338.19999980926514 z" fill="#C1C0B6" id="svg_26"/><path d="M150.99999990463257,348.0999998092651 c0.4,-0.8 1.2,-1 2,-1 c0,0 0.1,0.1 0.1,0.1 c-0.4,0.8 -1.2,1 -2,1 C151.19999990463256,348.29999980926516 150.99999990463257,348.0999998092651 150.99999990463257,348.0999998092651 z" fill="#C1C0B6" id="svg_27"/><path d="M182.09999990463257,327.19999980926514 c-0.4,0.8 -1.1,1 -2,1 L180.09999990463257,328.19999980926514 C180.49999990463257,327.29999980926516 181.19999990463256,327.19999980926514 182.09999990463257,327.19999980926514 C182.09999990463257,327.19999980926514 182.09999990463257,327.19999980926514 182.09999990463257,327.19999980926514 z" fill="#C3C2B8" id="svg_28"/><path d="M195.09999990463257,318.19999980926514 c0.2,-0.1 0.30000000000000004,-0.30000000000000004 0.5,-0.4 C195.39999990463258,317.8999998092651 195.29999990463256,318.0999998092651 195.09999990463257,318.19999980926514 C195.09999990463257,318.19999980926514 195.09999990463257,318.19999980926514 195.09999990463257,318.19999980926514 z" fill="#C5C3B9" id="svg_29"/><path d="M193.09999990463257,319.19999980926514 c-0.30000000000000004,0.30000000000000004 -0.7000000000000001,0.7000000000000001 -1,1 c0,0 -0.1,-0.1 -0.1,-0.1 C192.39999990463258,319.79999980926516 192.69999990463256,319.49999980926515 193.09999990463257,319.19999980926514 C193.09999990463257,319.19999980926514 193.09999990463257,319.19999980926514 193.09999990463257,319.19999980926514 z" fill="#C5C3B9" id="svg_30"/><path d="M187.09999990463257,323.19999980926514 c0,0.30000000000000004 0,0.7000000000000001 0,1 c-0.30000000000000004,0 -0.6000000000000001,0.1 -1,0 L186.09999990463257,324.19999980926514 C186.39999990463258,323.79999980926516 186.69999990463256,323.49999980926515 187.09999990463257,323.19999980926514 z" fill="#C3C2B8" id="svg_31"/><path d="M186.09999990463257,324.19999980926514 c-0.2,0.1 -0.30000000000000004,0.30000000000000004 -0.5,0.4 C185.79999990463256,324.49999980926515 185.89999990463258,324.29999980926516 186.09999990463257,324.19999980926514 C186.09999990463257,324.19999980926514 186.09999990463257,324.19999980926514 186.09999990463257,324.19999980926514 z" fill="#C3C2B8" id="svg_32"/><path d="M176.09999990463257,331.19999980926514 c0.30000000000000004,-0.30000000000000004 0.7000000000000001,-0.7000000000000001 1,-1 c0,0 0.1,0.1 0.1,0.1 C176.79999990463256,330.5999998092651 176.49999990463257,330.8999998092651 176.09999990463257,331.19999980926514 C176.09999990463257,331.19999980926514 176.09999990463257,331.19999980926514 176.09999990463257,331.19999980926514 z" fill="#C3C2B8" id="svg_33"/><path d="M170.09999990463257,335.19999980926514 c-0.2,0.1 -0.30000000000000004,0.30000000000000004 -0.5,0.4 C169.79999990463256,335.49999980926515 169.89999990463258,335.29999980926516 170.09999990463257,335.19999980926514 C170.09999990463257,335.19999980926514 170.09999990463257,335.19999980926514 170.09999990463257,335.19999980926514 z" fill="#C1C0B6" id="svg_34"/><path d="M180.09999990463257,328.19999980926514 c-0.30000000000000004,0.30000000000000004 -0.7000000000000001,0.7000000000000001 -1,1 c0,0 -0.1,-0.1 -0.1,-0.1 C179.39999990463258,328.79999980926516 179.69999990463256,328.49999980926515 180.09999990463257,328.19999980926514 C180.09999990463257,328.19999980926514 180.09999990463257,328.19999980926514 180.09999990463257,328.19999980926514 z" fill="#C3C2B8" id="svg_35"/></g></g></svg>