<svg xmlns="http://www.w3.org/2000/svg" xmlns:xlink="http://www.w3.org/1999/xlink" height="60" style="enable-background:new 0 0 67 67;" version="1.1" width="60" xml:space="preserve"><rect id="backgroundrect" width="100%" height="100%" x="0" y="0" fill="none" stroke="none"/><g class="currentLayer" style=""><title>Layer 1</title><path d="M34.167,18.283 c-2.619,0.9530000000000001 -4.274,3.411 -4.086,6.101 l0.06300000000000001,1.038 l-1.048,-0.127 c-3.813,-0.48700000000000004 -7.145,-2.1390000000000002 -9.974,-4.915 l-1.383,-1.377 l-0.35600000000000004,1.017 c-0.7540000000000001,2.267 -0.272,4.6610000000000005 1.299,6.271 c0.8380000000000001,0.8900000000000001 0.6490000000000001,1.017 -0.796,0.48700000000000004 c-0.503,-0.16900000000000004 -0.9430000000000001,-0.29600000000000004 -0.985,-0.233 c-0.14600000000000002,0.14900000000000002 0.35600000000000004,2.076 0.7540000000000001,2.839 c0.545,1.06 1.6550000000000002,2.097 2.871,2.712 l1.027,0.48700000000000004 l-1.215,0.021000000000000005 c-1.173,0 -1.215,0.021000000000000005 -1.089,0.467 c0.41900000000000004,1.377 2.074,2.839 3.918,3.475 l1.299,0.44400000000000006 l-1.131,0.6780000000000002 c-1.6760000000000002,0.976 -3.646,1.526 -5.616,1.5670000000000002 C16.775,39.256 16,39.341 16,39.405 c0,0.21100000000000002 2.557,1.397 4.044,1.864 c4.463,1.377 9.765,0.783 13.746,-1.568 c2.829,-1.6740000000000002 5.657,-5 6.978,-8.221 c0.7130000000000001,-1.715 1.425,-4.851 1.425,-6.354 c0,-0.975 0.06300000000000001,-1.102 1.236,-2.267 c0.6920000000000002,-0.6780000000000002 1.3410000000000002,-1.419 1.467,-1.6310000000000002 c0.21000000000000002,-0.403 0.18800000000000003,-0.403 -0.8800000000000001,-0.04300000000000001 c-1.7810000000000001,0.6360000000000001 -2.033,0.551 -1.1520000000000001,-0.402 c0.6490000000000001,-0.6780000000000002 1.425,-1.907 1.425,-2.267 c0,-0.06300000000000001 -0.31400000000000006,0.04200000000000001 -0.6710000000000002,0.233 c-0.37700000000000006,0.21200000000000002 -1.215,0.53 -1.844,0.7200000000000001 l-1.131,0.36100000000000004 l-1.027,-0.7000000000000001 c-0.5660000000000001,-0.38100000000000006 -1.361,-0.805 -1.7810000000000001,-0.932 C36.766,17.902 35.131,17.944 34.167,18.283 zM30,60 C13.431999999999999,60 0,46.568 0,30 C0,13.431000000000001 13.431999999999999,0 30,0 s30,13.431000000000001 30,30 C60,46.568 46.568,60 30,60 z" style="fill-rule:evenodd;clip-rule:evenodd;fill:#598DCA;" id="svg_1" class=""/></g></svg>